<svg height="512" viewBox="0 0 64 64" width="512" xmlns="http://www.w3.org/2000/svg"><g id="Fill_Outline" data-name="Fill Outline"><g id="Color"><g><path d="m58 57-26-4a5.518 5.518 0 0 1 6.807-5.366l13.235 3.176a7.975 7.975 0 0 1 5.958 6.19z" fill="#aae1f9"/><path d="m6 57 26-4a5.518 5.518 0 0 0 -6.807-5.366l-13.235 3.176a7.975 7.975 0 0 0 -5.958 6.19z" fill="#aae1f9"/><path d="m51.042 52.81-13.235-3.176a5.507 5.507 0 0 0 -5.619 1.949 5.537 5.537 0 0 0 -.188 1.417l24.155 3.716a7.972 7.972 0 0 0 -5.113-3.906z" fill="#57b7eb"/><path d="m26.193 49.634-13.235 3.176a7.972 7.972 0 0 0 -5.113 3.906l24.155-3.716a5.537 5.537 0 0 0 -.188-1.417 5.507 5.507 0 0 0 -5.619-1.949z" fill="#57b7eb"/><g><path d="m32 17v20h4v-16h8v-4z" fill="#fcbc04"/><path d="m44 17v-4h-8v-6h-4v10z" fill="#f9e109"/><path d="m32 7h-4v6h-8v4h12z" fill="#fcbc04"/><path d="m20 17v4h8v16h4v-20z" fill="#e59730"/></g><path d="m3 57v4l23.043-3.414a3.451 3.451 0 0 1 3.957 3.414h4a3.451 3.451 0 0 1 3.957-3.414l23.043 3.414v-4l-29-5z" fill="#f9e109"/><g fill="#f9e109"><path d="m32 11-4-4h8z"/><path d="m32 33-4 4h8z"/><path d="m40 17 4 4v-8z"/><path d="m24 17-4 4v-8z"/></g><path d="m3 59v2l23.043-3.414a3.451 3.451 0 0 1 3.957 3.414h4a3.451 3.451 0 0 1 3.957-3.414l23.043 3.414v-2l-29-5z" fill="#fcbc04"/></g></g><g id="Outline_copy" data-name="Outline copy"><g fill="#39519d"><path d="m20 22h7v15a1 1 0 0 0 1 1h8a1 1 0 0 0 1-1v-12a1 1 0 0 0 -2 0v9.586l-2-2v-14.586h6.586l2 2h-5.586a1 1 0 0 0 0 2h8a1 1 0 0 0 1-1v-8a1 1 0 0 0 -1-1h-7v-5a1 1 0 0 0 -1-1h-8a1 1 0 0 0 -1 1v6a1 1 0 0 0 2 0v-3.586l2 2v4.586h-6.586l-2-2h1.586a1 1 0 0 0 0-2h-4a1 1 0 0 0 -1 1v8a1 1 0 0 0 1 1zm12 12.414 1.586 1.586h-3.171zm9.414-17.414 1.586-1.586v3.172zm-9.414-7.414-1.585-1.586h3.171zm1 1.829 2-2v3.585a1 1 0 0 0 1 1h5.586l-2 2h-6.586zm-2 21.172-2 2v-13.587a1 1 0 0 0 -1-1h-5.586l2-2h6.586zm-10-14v-3.173l1.586 1.586z"/><path d="m44.293 31.293-5 5a1 1 0 1 0 1.414 1.414l5-5a1 1 0 0 0 -1.414-1.414z"/><path d="m22.241 37.651a1 1 0 0 0 1.518-1.3l-6-7a1 1 0 0 0 -1.518 1.3z"/><path d="m22.553 28.105a1 1 0 0 0 -.448 1.342l1 2a1 1 0 1 0 1.79-.894l-1-2a1 1 0 0 0 -1.342-.448z"/><path d="m40 32a1 1 0 0 0 .9-.553l1-2a1 1 0 0 0 -1.79-.894l-1 2a1 1 0 0 0 .89 1.447z"/><path d="m31 41v2a1 1 0 0 0 2 0v-2a1 1 0 0 0 -2 0z"/><path d="m61.17 56.015-2.551-.44a8.975 8.975 0 0 0 -6.346-5.737l-13.242-3.183c-.2-.045-.392-.076-.588-.1a12.175 12.175 0 0 1 10 .909l3.307 1.86a8.152 8.152 0 0 0 6.562.628 1 1 0 0 0 -.632-1.9 6.148 6.148 0 0 1 -4.95-.473l-3.306-1.86a14.235 14.235 0 0 0 -7.971-1.807 14.163 14.163 0 0 1 10.1.984 3.241 3.241 0 0 0 4.347-1.448 1 1 0 0 0 -1.79-.9 1.237 1.237 0 0 1 -1.658.553 16.218 16.218 0 0 0 -20.452 5.135 16.214 16.214 0 0 0 -20.447-5.131 1.236 1.236 0 0 1 -1.653-.553 1 1 0 0 0 -1.79.9 3.242 3.242 0 0 0 4.337 1.448 14.159 14.159 0 0 1 10.1-.983 14.234 14.234 0 0 0 -7.974 1.806l-3.306 1.86a6.14 6.14 0 0 1 -4.95.473 1 1 0 0 0 -.632 1.9 8.147 8.147 0 0 0 6.562-.628l3.307-1.86a12.167 12.167 0 0 1 10-.909c-.2.028-.4.06-.6.106l-13.233 3.18a9.065 9.065 0 0 0 -3.868 2.045 1 1 0 0 0 1.332 1.492 7.061 7.061 0 0 1 3-1.593l13.219-3.177a4.506 4.506 0 0 1 5.211 2.618l-27.785 4.785a1 1 0 0 0 -.83.985v4a1 1 0 0 0 1.146.989l23.041-3.41a2.447 2.447 0 0 1 2.813 2.421 1 1 0 0 0 1 1h4a1 1 0 0 0 1-1 2.448 2.448 0 0 1 2.44-2.45 2.12 2.12 0 0 1 .373.029l6.269.928a1 1 0 0 0 .293-1.979l-6.242-.923a4.047 4.047 0 0 0 -.693-.055 4.45 4.45 0 0 0 -4.327 3.45h-2.226a4.447 4.447 0 0 0 -4.993-3.4l-21.894 3.241v-2l27.992-4.826 22.186 3.823 5.822 1v2l-11.667-1.724a1 1 0 0 0 -.293 1.979l12.814 1.9a.889.889 0 0 0 .146.007 1 1 0 0 0 1-1v-4a1 1 0 0 0 -.83-.985zm-9.37-4.233a7 7 0 0 1 4.467 3.388l-1.506-.26-21.4-3.689a4.553 4.553 0 0 1 5.215-2.621z"/></g></g></g></svg>